<svg xmlns="http://www.w3.org/2000/svg" xmlns:xlink="http://www.w3.org/1999/xlink" style="isolation:isolate" width="1280" height="800" viewBox="0 0 1280 800"><defs><clipPath id="_clipPath_5c3iCgdijDzrgN0usrLBSYtJmmgvxofA"><rect width="1280" height="800"/></clipPath></defs><g clip-path="url(#_clipPath_5c3iCgdijDzrgN0usrLBSYtJmmgvxofA)"><linearGradient id="_lgradient_3" x1="-.025" x2="1.343" y1=".698" y2=".195" gradientTransform="matrix(459.245,293.61,-287.553,449.771,1000.506,409.141)" gradientUnits="userSpaceOnUse"><stop offset="2.174%" stop-opacity="1" style="stop-color:#4ffbdf"/><stop offset="100%" stop-opacity="1" style="stop-color:#074"/></linearGradient><path fill="url(#_lgradient_3)" d="M 828.885 693.142 L 828.885 693.142 L 828.885 693.142 C 834.649 675.536 847.476 648.624 857.51 633.081 L 857.51 633.081 L 857.51 633.081 C 867.544 617.538 886.79 594.768 900.463 582.265 L 900.463 582.265 L 900.463 582.265 C 914.136 569.762 938.593 552.566 955.046 543.888 L 955.046 543.888 L 955.046 543.888 C 971.498 535.211 999.63 524.669 1017.828 520.362 L 1017.828 520.362 L 1017.828 520.362 C 1036.026 516.055 1066.065 512.829 1084.865 513.163 L 1084.865 513.163 L 1084.865 513.163 C 1103.666 513.498 1133.724 517.791 1151.945 522.746 L 1151.945 522.746 L 1151.945 522.746 C 1170.167 527.7 1198.355 539.244 1214.853 548.507 L 1214.853 548.507 L 1214.853 548.507 C 1231.351 557.77 1255.898 575.838 1269.636 588.828 L 1269.636 588.828 L 1269.636 588.828 C 1283.373 601.818 1302.738 625.275 1312.852 641.176 L 1312.852 641.176 L 1312.852 641.176 C 1322.966 657.077 1335.93 684.448 1341.785 702.26 L 1341.785 702.26 L 1341.785 702.26 C 1347.64 720.073 1353.39 749.639 1354.617 768.244 L 1354.617 768.244 L 1354.617 768.244 C 1355.845 786.849 1354.02 816.753 1350.543 834.981 L 1350.543 834.981 L 1350.543 834.981 C 1347.067 853.209 1337.78 881.572 1329.818 898.278 L 1329.818 898.278 L 1329.818 898.278 C 1321.856 914.984 1305.692 940.023 1293.745 954.157 L 1293.745 954.157 L 1293.745 954.157 C 1281.797 968.291 1259.771 988.433 1244.589 999.108 L 1244.589 999.108 L 1244.589 999.108 C 1229.407 1009.782 1202.903 1023.761 1185.44 1030.305 L 1185.44 1030.305 L 1185.44 1030.305 C 1167.977 1036.849 1138.661 1043.788 1120.014 1045.79 L 1120.014 1045.79 L 1120.014 1045.79 C 1101.368 1047.792 1071.081 1047.254 1052.423 1044.588 L 1052.423 1044.588 L 1052.423 1044.588 C 1033.764 1041.923 1004.41 1033.942 986.912 1026.776 L 986.912 1026.776 L 986.912 1026.776 C 969.414 1019.611 942.837 1004.688 927.599 993.472 L 927.599 993.472 L 927.599 993.472 C 912.361 982.257 890.231 961.33 878.21 946.77 L 878.21 946.77 L 878.21 946.77 C 866.19 932.209 849.897 906.594 841.849 889.603 L 841.849 889.603 L 841.849 889.603 C 833.802 872.612 824.37 843.917 820.8 825.564 L 820.8 825.564 L 820.8 825.564 C 817.231 807.21 815.253 777.239 816.386 758.676 L 816.386 758.676 L 816.386 758.676 C 817.52 740.113 823.12 710.748 828.885 693.142 Z"/></g></svg>